<?xml version="1.0" standalone="no"?>
<!DOCTYPE svg PUBLIC "-//W3C//DTD SVG 20010904//EN"
        "http://www.w3.org/TR/2001/REC-SVG-20010904/DTD/svg10.dtd">
<svg version="1.0" xmlns="http://www.w3.org/2000/svg"
     width="96" height="96" viewBox="0 0 627 627"
     preserveAspectRatio="xMidYMid meet">

    <g transform="translate(0,627) scale(0.1,-0.1)"
       fill="#ea5812">
        <rect width="6270" height="6270" fill="#3ae5fc"/>
        <path fill-rule="evenodd" d="M0 3135 l0 -3135 3135 0 3135 0 0 3135 0 3135 -3135 0 -3135 0 0
-3135z m2590 765 l0 -320 195 0 c107 0 195 1 195 3 0 2 -45 39 -100 82 -54 44
-98 80 -96 82 2 3 293 -101 551 -197 77 -28 159 -59 183 -67 24 -8 40 -19 35
-23 -10 -8 -823 -163 -829 -157 -2 2 27 16 64 31 38 15 99 45 136 65 l68 38
-89 7 c-48 3 -203 11 -343 16 -140 6 -448 22 -685 35 -236 14 -506 30 -599 35
-93 6 -171 12 -173 13 -2 2 117 7 264 11 148 3 379 9 516 13 l247 6 0 324 0
323 230 0 230 0 0 -320z m1540 -240 l0 -560 -22 0 c-28 0 -558 24 -1103 50
-225 11 -471 22 -545 25 -173 8 -843 59 -1160 89 -287 28 -245 31 225 16 171
-5 438 -12 595 -15 157 -3 422 -9 590 -15 168 -5 450 -12 628 -16 l322 -6 0
496 0 496 235 0 235 0 0 -560z m480 -532 c146 -55 328 -124 405 -153 77 -30
133 -56 125 -59 -72 -25 -787 -189 -870 -200 l-45 -5 55 18 c46 15 345 161
330 161 -3 0 -185 11 -405 25 -405 26 -1301 79 -1497 90 l-108 5 0 -475 0
-475 -235 0 -235 0 0 536 0 537 123 -7 c67 -3 250 -11 407 -16 157 -5 386 -14
510 -20 124 -5 457 -19 740 -30 283 -12 554 -24 603 -28 48 -5 87 -5 87 -2 0
3 -33 28 -72 55 -178 125 -222 157 -203 150 11 -4 139 -52 285 -107z m-693
-415 l213 -38 0 -308 0 -307 -232 2 c-179 2 -233 6 -232 16 1 6 2 161 3 342 1
307 2 330 19 330 9 0 113 -16 229 -37z"/>
    </g>
</svg>
